<mxfile host="app.diagrams.net" agent="Mozilla/5.0 (Windows NT 10.0; Win64; x64) AppleWebKit/537.36 (KHTML, like Gecko) Chrome/119.0.0.0 Safari/537.36" version="26.2.14">
  <diagram name="第 1 页" id="u9CfZd5uNaFkFMubaDs7">
    <mxGraphModel dx="1812" dy="439" grid="1" gridSize="10" guides="1" tooltips="1" connect="1" arrows="1" fold="1" page="1" pageScale="1" pageWidth="827" pageHeight="1169" math="0" shadow="0">
      <root>
        <mxCell id="0" />
        <mxCell id="1" parent="0" />
        <mxCell id="Z1yTV6-vZwtkHGQ9RvEY-99" value="" style="rounded=0;whiteSpace=wrap;html=1;" vertex="1" parent="1">
          <mxGeometry x="-565" y="1370" width="395" height="440" as="geometry" />
        </mxCell>
        <mxCell id="Z1yTV6-vZwtkHGQ9RvEY-66" value="" style="whiteSpace=wrap;html=1;aspect=fixed;" vertex="1" parent="1">
          <mxGeometry x="-700" y="730" width="490" height="490" as="geometry" />
        </mxCell>
        <mxCell id="Z1yTV6-vZwtkHGQ9RvEY-25" value="" style="rounded=0;whiteSpace=wrap;html=1;" vertex="1" parent="1">
          <mxGeometry x="-730" y="160" width="450" height="510" as="geometry" />
        </mxCell>
        <mxCell id="ddVlBPu1Q9asjV-bzZAw-96" value="" style="rounded=0;whiteSpace=wrap;html=1;" parent="1" vertex="1">
          <mxGeometry x="-60" y="50" width="780" height="1140" as="geometry" />
        </mxCell>
        <mxCell id="ddVlBPu1Q9asjV-bzZAw-95" value="" style="rounded=0;whiteSpace=wrap;html=1;dashed=1;" parent="1" vertex="1">
          <mxGeometry x="-10" y="350" width="680" height="190" as="geometry" />
        </mxCell>
        <mxCell id="ddVlBPu1Q9asjV-bzZAw-66" value="" style="rounded=0;whiteSpace=wrap;html=1;dashed=1;" parent="1" vertex="1">
          <mxGeometry x="-10" y="1000" width="680" height="150" as="geometry" />
        </mxCell>
        <mxCell id="ddVlBPu1Q9asjV-bzZAw-65" value="" style="rounded=0;whiteSpace=wrap;html=1;dashed=1;" parent="1" vertex="1">
          <mxGeometry x="-10" y="550" width="680" height="430" as="geometry" />
        </mxCell>
        <mxCell id="ddVlBPu1Q9asjV-bzZAw-64" value="" style="rounded=0;whiteSpace=wrap;html=1;dashed=1;" parent="1" vertex="1">
          <mxGeometry x="-10" y="120" width="680" height="220" as="geometry" />
        </mxCell>
        <mxCell id="ddVlBPu1Q9asjV-bzZAw-43" value="" style="rounded=0;whiteSpace=wrap;html=1;" parent="1" vertex="1">
          <mxGeometry x="142.5" y="155" width="495" height="150" as="geometry" />
        </mxCell>
        <object label="" id="ddVlBPu1Q9asjV-bzZAw-34">
          <mxCell style="rounded=0;whiteSpace=wrap;html=1;" parent="1" vertex="1">
            <mxGeometry x="180" y="200" width="120" height="60" as="geometry" />
          </mxCell>
        </object>
        <mxCell id="ddVlBPu1Q9asjV-bzZAw-35" value="" style="rounded=0;whiteSpace=wrap;html=1;" parent="1" vertex="1">
          <mxGeometry x="330" y="200" width="120" height="60" as="geometry" />
        </mxCell>
        <mxCell id="ddVlBPu1Q9asjV-bzZAw-36" value="" style="rounded=0;whiteSpace=wrap;html=1;" parent="1" vertex="1">
          <mxGeometry x="470" y="200" width="120" height="60" as="geometry" />
        </mxCell>
        <mxCell id="ddVlBPu1Q9asjV-bzZAw-38" value="&lt;font style=&quot;font-size: 18px;&quot;&gt;管理员端&lt;/font&gt;" style="text;html=1;align=center;verticalAlign=middle;whiteSpace=wrap;rounded=0;" parent="1" vertex="1">
          <mxGeometry x="200" y="212.5" width="80" height="35" as="geometry" />
        </mxCell>
        <mxCell id="ddVlBPu1Q9asjV-bzZAw-40" value="&lt;font style=&quot;font-size: 18px;&quot;&gt;教师端&lt;/font&gt;" style="text;html=1;align=center;verticalAlign=middle;whiteSpace=wrap;rounded=0;" parent="1" vertex="1">
          <mxGeometry x="360" y="215" width="60" height="30" as="geometry" />
        </mxCell>
        <mxCell id="ddVlBPu1Q9asjV-bzZAw-41" value="&lt;font style=&quot;font-size: 18px;&quot;&gt;学生端&lt;/font&gt;" style="text;html=1;align=center;verticalAlign=middle;whiteSpace=wrap;rounded=0;" parent="1" vertex="1">
          <mxGeometry x="500" y="215" width="60" height="30" as="geometry" />
        </mxCell>
        <mxCell id="ddVlBPu1Q9asjV-bzZAw-42" value="" style="shape=flexArrow;endArrow=classic;html=1;rounded=0;endWidth=32.85714285714286;endSize=7.571428571428572;entryX=0.22;entryY=-0.01;entryDx=0;entryDy=0;entryPerimeter=0;fillColor=#000000;strokeColor=default;fillStyle=auto;" parent="1" target="ddVlBPu1Q9asjV-bzZAw-48" edge="1">
          <mxGeometry width="50" height="50" relative="1" as="geometry">
            <mxPoint x="250.29000000000002" y="305" as="sourcePoint" />
            <mxPoint x="250" y="360" as="targetPoint" />
          </mxGeometry>
        </mxCell>
        <mxCell id="ddVlBPu1Q9asjV-bzZAw-44" value="&lt;font style=&quot;font-size: 24px;&quot;&gt;应用层&lt;/font&gt;" style="text;html=1;align=center;verticalAlign=middle;whiteSpace=wrap;rounded=0;" parent="1" vertex="1">
          <mxGeometry x="-10" y="155" width="110" height="130" as="geometry" />
        </mxCell>
        <mxCell id="ddVlBPu1Q9asjV-bzZAw-46" value="" style="shape=flexArrow;endArrow=classic;html=1;rounded=0;endWidth=32.85714285714286;endSize=7.571428571428572;entryX=0.682;entryY=0.991;entryDx=0;entryDy=0;entryPerimeter=0;fillColor=light-dark(#050505, #ededed);" parent="1" target="ddVlBPu1Q9asjV-bzZAw-43" edge="1">
          <mxGeometry width="50" height="50" relative="1" as="geometry">
            <mxPoint x="480" y="370" as="sourcePoint" />
            <mxPoint x="480.29499999999985" y="311.8499999999999" as="targetPoint" />
            <Array as="points">
              <mxPoint x="480" y="370" />
            </Array>
          </mxGeometry>
        </mxCell>
        <mxCell id="ddVlBPu1Q9asjV-bzZAw-48" value="" style="rounded=0;whiteSpace=wrap;html=1;" parent="1" vertex="1">
          <mxGeometry x="141.25" y="370" width="495" height="150" as="geometry" />
        </mxCell>
        <mxCell id="ddVlBPu1Q9asjV-bzZAw-49" value="" style="rounded=0;whiteSpace=wrap;html=1;" parent="1" vertex="1">
          <mxGeometry x="200" y="410" width="130" height="60" as="geometry" />
        </mxCell>
        <mxCell id="ddVlBPu1Q9asjV-bzZAw-50" value="&lt;font style=&quot;font-size: 18px;&quot;&gt;get/post/RESET请求&lt;/font&gt;" style="text;html=1;align=center;verticalAlign=middle;whiteSpace=wrap;rounded=0;" parent="1" vertex="1">
          <mxGeometry x="220" y="415" width="90" height="50" as="geometry" />
        </mxCell>
        <mxCell id="ddVlBPu1Q9asjV-bzZAw-51" value="" style="rounded=0;whiteSpace=wrap;html=1;" parent="1" vertex="1">
          <mxGeometry x="420" y="410" width="130" height="60" as="geometry" />
        </mxCell>
        <mxCell id="ddVlBPu1Q9asjV-bzZAw-52" value="&lt;font style=&quot;font-size: 18px;&quot;&gt;json数据&lt;/font&gt;" style="text;html=1;align=center;verticalAlign=middle;whiteSpace=wrap;rounded=0;" parent="1" vertex="1">
          <mxGeometry x="440" y="415" width="90" height="50" as="geometry" />
        </mxCell>
        <mxCell id="ddVlBPu1Q9asjV-bzZAw-53" value="&lt;span style=&quot;font-size: 24px;&quot;&gt;http数据请求&lt;/span&gt;" style="text;html=1;align=center;verticalAlign=middle;whiteSpace=wrap;rounded=0;" parent="1" vertex="1">
          <mxGeometry x="-10" y="360" width="110" height="130" as="geometry" />
        </mxCell>
        <mxCell id="ddVlBPu1Q9asjV-bzZAw-54" value="" style="rounded=0;whiteSpace=wrap;html=1;" parent="1" vertex="1">
          <mxGeometry x="141.25" y="810" width="495" height="150" as="geometry" />
        </mxCell>
        <mxCell id="ddVlBPu1Q9asjV-bzZAw-55" value="&lt;span style=&quot;font-size: 24px;&quot;&gt;服务层&lt;/span&gt;" style="text;html=1;align=center;verticalAlign=middle;whiteSpace=wrap;rounded=0;" parent="1" vertex="1">
          <mxGeometry x="-20" y="710" width="110" height="130" as="geometry" />
        </mxCell>
        <mxCell id="ddVlBPu1Q9asjV-bzZAw-56" value="" style="rounded=0;whiteSpace=wrap;html=1;" parent="1" vertex="1">
          <mxGeometry x="141.25" y="560" width="498.75" height="170" as="geometry" />
        </mxCell>
        <mxCell id="ddVlBPu1Q9asjV-bzZAw-57" value="&lt;span style=&quot;font-size: 24px;&quot;&gt;业务处理&lt;/span&gt;" style="text;html=1;align=center;verticalAlign=middle;whiteSpace=wrap;rounded=0;" parent="1" vertex="1">
          <mxGeometry x="20" y="580" width="110" height="130" as="geometry" />
        </mxCell>
        <mxCell id="ddVlBPu1Q9asjV-bzZAw-58" value="&lt;span style=&quot;font-size: 24px;&quot;&gt;持久层&lt;/span&gt;&lt;div&gt;&lt;span style=&quot;font-size: 24px;&quot;&gt;（Redis）&lt;/span&gt;&lt;/div&gt;" style="text;html=1;align=center;verticalAlign=middle;whiteSpace=wrap;rounded=0;" parent="1" vertex="1">
          <mxGeometry x="41.25" y="820" width="110" height="130" as="geometry" />
        </mxCell>
        <mxCell id="ddVlBPu1Q9asjV-bzZAw-59" value="" style="endArrow=none;dashed=1;html=1;rounded=0;" parent="1" edge="1">
          <mxGeometry width="50" height="50" relative="1" as="geometry">
            <mxPoint x="100" y="774.09" as="sourcePoint" />
            <mxPoint x="700" y="774.09" as="targetPoint" />
          </mxGeometry>
        </mxCell>
        <mxCell id="ddVlBPu1Q9asjV-bzZAw-62" value="" style="rounded=0;whiteSpace=wrap;html=1;" parent="1" vertex="1">
          <mxGeometry x="141.25" y="1020" width="497.5" height="110" as="geometry" />
        </mxCell>
        <mxCell id="ddVlBPu1Q9asjV-bzZAw-63" value="&lt;span style=&quot;font-size: 24px;&quot;&gt;存储层&lt;/span&gt;" style="text;html=1;align=center;verticalAlign=middle;whiteSpace=wrap;rounded=0;" parent="1" vertex="1">
          <mxGeometry x="32.5" y="1010" width="110" height="130" as="geometry" />
        </mxCell>
        <object label="" id="ddVlBPu1Q9asjV-bzZAw-68">
          <mxCell style="rounded=0;whiteSpace=wrap;html=1;" parent="1" vertex="1">
            <mxGeometry x="190" y="580" width="120" height="50" as="geometry" />
          </mxCell>
        </object>
        <mxCell id="ddVlBPu1Q9asjV-bzZAw-69" value="" style="rounded=0;whiteSpace=wrap;html=1;" parent="1" vertex="1">
          <mxGeometry x="340" y="580" width="120" height="50" as="geometry" />
        </mxCell>
        <mxCell id="ddVlBPu1Q9asjV-bzZAw-70" value="" style="rounded=0;whiteSpace=wrap;html=1;" parent="1" vertex="1">
          <mxGeometry x="480" y="580" width="120" height="50" as="geometry" />
        </mxCell>
        <mxCell id="ddVlBPu1Q9asjV-bzZAw-71" value="&lt;font style=&quot;font-size: 18px;&quot;&gt;用户管理&lt;/font&gt;" style="text;html=1;align=center;verticalAlign=middle;whiteSpace=wrap;rounded=0;" parent="1" vertex="1">
          <mxGeometry x="210" y="587.5" width="80" height="35" as="geometry" />
        </mxCell>
        <mxCell id="ddVlBPu1Q9asjV-bzZAw-72" value="&lt;font style=&quot;font-size: 18px;&quot;&gt;课程管理&lt;/font&gt;" style="text;html=1;align=center;verticalAlign=middle;whiteSpace=wrap;rounded=0;" parent="1" vertex="1">
          <mxGeometry x="360" y="590" width="80" height="30" as="geometry" />
        </mxCell>
        <mxCell id="ddVlBPu1Q9asjV-bzZAw-73" value="&lt;font style=&quot;font-size: 18px;&quot;&gt;消息管理&lt;/font&gt;" style="text;html=1;align=center;verticalAlign=middle;whiteSpace=wrap;rounded=0;" parent="1" vertex="1">
          <mxGeometry x="500" y="590" width="80" height="30" as="geometry" />
        </mxCell>
        <mxCell id="ddVlBPu1Q9asjV-bzZAw-75" value="" style="rounded=0;whiteSpace=wrap;html=1;" parent="1" vertex="1">
          <mxGeometry x="190" y="650" width="120" height="50" as="geometry" />
        </mxCell>
        <mxCell id="ddVlBPu1Q9asjV-bzZAw-78" value="&lt;font style=&quot;font-size: 18px;&quot;&gt;公告管理&lt;/font&gt;" style="text;html=1;align=center;verticalAlign=middle;whiteSpace=wrap;rounded=0;" parent="1" vertex="1">
          <mxGeometry x="213.75" y="660" width="80" height="30" as="geometry" />
        </mxCell>
        <mxCell id="ddVlBPu1Q9asjV-bzZAw-82" value="" style="rounded=0;whiteSpace=wrap;html=1;" parent="1" vertex="1">
          <mxGeometry x="220" y="830" width="120" height="50" as="geometry" />
        </mxCell>
        <mxCell id="ddVlBPu1Q9asjV-bzZAw-83" value="" style="rounded=0;whiteSpace=wrap;html=1;" parent="1" vertex="1">
          <mxGeometry x="430" y="830" width="120" height="50" as="geometry" />
        </mxCell>
        <mxCell id="ddVlBPu1Q9asjV-bzZAw-85" value="&lt;font style=&quot;font-size: 18px;&quot;&gt;当前用户信息&lt;/font&gt;" style="text;html=1;align=center;verticalAlign=middle;whiteSpace=wrap;rounded=0;" parent="1" vertex="1">
          <mxGeometry x="250" y="840" width="60" height="30" as="geometry" />
        </mxCell>
        <mxCell id="ddVlBPu1Q9asjV-bzZAw-86" value="&lt;font style=&quot;font-size: 18px;&quot;&gt;个性化推荐&lt;/font&gt;" style="text;html=1;align=center;verticalAlign=middle;whiteSpace=wrap;rounded=0;" parent="1" vertex="1">
          <mxGeometry x="460" y="840" width="60" height="30" as="geometry" />
        </mxCell>
        <object label="" id="ddVlBPu1Q9asjV-bzZAw-87">
          <mxCell style="rounded=0;whiteSpace=wrap;html=1;" parent="1" vertex="1">
            <mxGeometry x="220" y="900" width="120" height="50" as="geometry" />
          </mxCell>
        </object>
        <mxCell id="ddVlBPu1Q9asjV-bzZAw-90" value="&lt;font style=&quot;font-size: 18px;&quot;&gt;课程审核&lt;/font&gt;" style="text;html=1;align=center;verticalAlign=middle;whiteSpace=wrap;rounded=0;" parent="1" vertex="1">
          <mxGeometry x="240" y="907.5" width="80" height="35" as="geometry" />
        </mxCell>
        <object label="" id="ddVlBPu1Q9asjV-bzZAw-93">
          <mxCell style="rounded=0;whiteSpace=wrap;html=1;" parent="1" vertex="1">
            <mxGeometry x="220.63" y="1050" width="120" height="50" as="geometry" />
          </mxCell>
        </object>
        <mxCell id="ddVlBPu1Q9asjV-bzZAw-94" value="&lt;font style=&quot;font-size: 18px;&quot;&gt;数据库&lt;/font&gt;&lt;div&gt;&lt;font style=&quot;font-size: 18px;&quot;&gt;（MySQL）&lt;/font&gt;&lt;/div&gt;" style="text;html=1;align=center;verticalAlign=middle;whiteSpace=wrap;rounded=0;" parent="1" vertex="1">
          <mxGeometry x="240.63" y="1057.5" width="80" height="35" as="geometry" />
        </mxCell>
        <object label="" id="BLD--xY--M6ObjNb1W0e-8">
          <mxCell style="rounded=0;whiteSpace=wrap;html=1;" parent="1" vertex="1">
            <mxGeometry x="440.63" y="1050" width="120" height="50" as="geometry" />
          </mxCell>
        </object>
        <mxCell id="BLD--xY--M6ObjNb1W0e-9" value="&lt;font style=&quot;font-size: 18px;&quot;&gt;Redis&lt;/font&gt;" style="text;html=1;align=center;verticalAlign=middle;whiteSpace=wrap;rounded=0;" parent="1" vertex="1">
          <mxGeometry x="460.63" y="1057.5" width="80" height="35" as="geometry" />
        </mxCell>
        <mxCell id="Z1yTV6-vZwtkHGQ9RvEY-17" style="edgeStyle=orthogonalEdgeStyle;rounded=0;orthogonalLoop=1;jettySize=auto;html=1;exitX=0.5;exitY=1;exitDx=0;exitDy=0;entryX=0.5;entryY=0;entryDx=0;entryDy=0;" edge="1" parent="1" source="hHOjUw7R2-_CQFQih91E-1" target="hHOjUw7R2-_CQFQih91E-2">
          <mxGeometry relative="1" as="geometry" />
        </mxCell>
        <mxCell id="hHOjUw7R2-_CQFQih91E-1" value="&lt;font style=&quot;font-size: 14px;&quot;&gt;开始&lt;/font&gt;" style="rounded=1;whiteSpace=wrap;html=1;" parent="1" vertex="1">
          <mxGeometry x="-580" y="240" width="120" height="30" as="geometry" />
        </mxCell>
        <mxCell id="Z1yTV6-vZwtkHGQ9RvEY-14" value="" style="edgeStyle=orthogonalEdgeStyle;rounded=0;orthogonalLoop=1;jettySize=auto;html=1;" edge="1" parent="1" source="hHOjUw7R2-_CQFQih91E-2" target="Z1yTV6-vZwtkHGQ9RvEY-5">
          <mxGeometry relative="1" as="geometry" />
        </mxCell>
        <mxCell id="hHOjUw7R2-_CQFQih91E-2" value="&lt;font style=&quot;font-size: 14px;&quot;&gt;用户登录&lt;/font&gt;" style="rounded=0;whiteSpace=wrap;html=1;" parent="1" vertex="1">
          <mxGeometry x="-580" y="285" width="120" height="40" as="geometry" />
        </mxCell>
        <mxCell id="Z1yTV6-vZwtkHGQ9RvEY-7" value="" style="edgeStyle=orthogonalEdgeStyle;rounded=0;orthogonalLoop=1;jettySize=auto;html=1;exitX=0;exitY=0.5;exitDx=0;exitDy=0;entryX=0;entryY=0.5;entryDx=0;entryDy=0;" edge="1" parent="1" source="Z1yTV6-vZwtkHGQ9RvEY-5" target="Z1yTV6-vZwtkHGQ9RvEY-10">
          <mxGeometry relative="1" as="geometry">
            <mxPoint x="-630" y="620" as="targetPoint" />
          </mxGeometry>
        </mxCell>
        <mxCell id="Z1yTV6-vZwtkHGQ9RvEY-11" value="&lt;font style=&quot;font-size: 14px;&quot;&gt;发布评论&lt;/font&gt;" style="edgeLabel;html=1;align=center;verticalAlign=middle;resizable=0;points=[];" vertex="1" connectable="0" parent="Z1yTV6-vZwtkHGQ9RvEY-7">
          <mxGeometry x="-0.1575" y="-4" relative="1" as="geometry">
            <mxPoint as="offset" />
          </mxGeometry>
        </mxCell>
        <mxCell id="Z1yTV6-vZwtkHGQ9RvEY-8" style="edgeStyle=orthogonalEdgeStyle;rounded=0;orthogonalLoop=1;jettySize=auto;html=1;exitX=1;exitY=0.5;exitDx=0;exitDy=0;entryX=1;entryY=0.5;entryDx=0;entryDy=0;" edge="1" parent="1" source="Z1yTV6-vZwtkHGQ9RvEY-5" target="Z1yTV6-vZwtkHGQ9RvEY-6">
          <mxGeometry relative="1" as="geometry" />
        </mxCell>
        <mxCell id="Z1yTV6-vZwtkHGQ9RvEY-9" value="&lt;font style=&quot;font-size: 14px;&quot;&gt;回复评论&lt;/font&gt;" style="edgeLabel;html=1;align=center;verticalAlign=middle;resizable=0;points=[];" vertex="1" connectable="0" parent="Z1yTV6-vZwtkHGQ9RvEY-8">
          <mxGeometry x="-0.2568" y="2" relative="1" as="geometry">
            <mxPoint as="offset" />
          </mxGeometry>
        </mxCell>
        <mxCell id="Z1yTV6-vZwtkHGQ9RvEY-5" value="&lt;font size=&quot;3&quot;&gt;进入课程详情页&lt;/font&gt;" style="rhombus;whiteSpace=wrap;html=1;" vertex="1" parent="1">
          <mxGeometry x="-625" y="340" width="210" height="60" as="geometry" />
        </mxCell>
        <mxCell id="Z1yTV6-vZwtkHGQ9RvEY-12" value="" style="edgeStyle=orthogonalEdgeStyle;rounded=0;orthogonalLoop=1;jettySize=auto;html=1;" edge="1" parent="1" source="Z1yTV6-vZwtkHGQ9RvEY-6" target="Z1yTV6-vZwtkHGQ9RvEY-10">
          <mxGeometry relative="1" as="geometry" />
        </mxCell>
        <mxCell id="Z1yTV6-vZwtkHGQ9RvEY-6" value="&lt;font style=&quot;font-size: 14px;&quot;&gt;绑定父评论ID&lt;/font&gt;" style="rounded=0;whiteSpace=wrap;html=1;" vertex="1" parent="1">
          <mxGeometry x="-580" y="415" width="120" height="30" as="geometry" />
        </mxCell>
        <mxCell id="Z1yTV6-vZwtkHGQ9RvEY-19" value="" style="edgeStyle=orthogonalEdgeStyle;rounded=0;orthogonalLoop=1;jettySize=auto;html=1;" edge="1" parent="1" source="Z1yTV6-vZwtkHGQ9RvEY-10" target="Z1yTV6-vZwtkHGQ9RvEY-18">
          <mxGeometry relative="1" as="geometry" />
        </mxCell>
        <mxCell id="Z1yTV6-vZwtkHGQ9RvEY-10" value="&lt;font style=&quot;font-size: 14px;&quot;&gt;输入评论内容&lt;/font&gt;" style="rounded=0;whiteSpace=wrap;html=1;" vertex="1" parent="1">
          <mxGeometry x="-580" y="465" width="120" height="30" as="geometry" />
        </mxCell>
        <mxCell id="Z1yTV6-vZwtkHGQ9RvEY-21" value="" style="edgeStyle=orthogonalEdgeStyle;rounded=0;orthogonalLoop=1;jettySize=auto;html=1;" edge="1" parent="1" source="Z1yTV6-vZwtkHGQ9RvEY-18">
          <mxGeometry relative="1" as="geometry">
            <mxPoint x="-520" y="570" as="targetPoint" />
          </mxGeometry>
        </mxCell>
        <mxCell id="Z1yTV6-vZwtkHGQ9RvEY-18" value="&lt;span style=&quot;font-size: 14px;&quot;&gt;实时显示新评论&lt;/span&gt;" style="rounded=0;whiteSpace=wrap;html=1;" vertex="1" parent="1">
          <mxGeometry x="-580" y="520" width="120" height="30" as="geometry" />
        </mxCell>
        <mxCell id="Z1yTV6-vZwtkHGQ9RvEY-23" value="&lt;font style=&quot;font-size: 14px;&quot;&gt;结束&lt;/font&gt;" style="rounded=1;whiteSpace=wrap;html=1;" vertex="1" parent="1">
          <mxGeometry x="-580" y="570" width="120" height="30" as="geometry" />
        </mxCell>
        <mxCell id="Z1yTV6-vZwtkHGQ9RvEY-24" value="" style="rounded=0;whiteSpace=wrap;html=1;" vertex="1" parent="1">
          <mxGeometry x="-160" y="360" width="120" height="60" as="geometry" />
        </mxCell>
        <mxCell id="Z1yTV6-vZwtkHGQ9RvEY-42" style="edgeStyle=orthogonalEdgeStyle;rounded=0;orthogonalLoop=1;jettySize=auto;html=1;exitX=0.5;exitY=1;exitDx=0;exitDy=0;entryX=0.5;entryY=0;entryDx=0;entryDy=0;" edge="1" parent="1" source="Z1yTV6-vZwtkHGQ9RvEY-43" target="Z1yTV6-vZwtkHGQ9RvEY-45">
          <mxGeometry relative="1" as="geometry" />
        </mxCell>
        <mxCell id="Z1yTV6-vZwtkHGQ9RvEY-43" value="&lt;font style=&quot;font-size: 14px;&quot;&gt;开始&lt;/font&gt;" style="rounded=1;whiteSpace=wrap;html=1;" vertex="1" parent="1">
          <mxGeometry x="-534.94" y="780" width="120" height="30" as="geometry" />
        </mxCell>
        <mxCell id="Z1yTV6-vZwtkHGQ9RvEY-44" value="" style="edgeStyle=orthogonalEdgeStyle;rounded=0;orthogonalLoop=1;jettySize=auto;html=1;" edge="1" parent="1" source="Z1yTV6-vZwtkHGQ9RvEY-45" target="Z1yTV6-vZwtkHGQ9RvEY-50">
          <mxGeometry relative="1" as="geometry" />
        </mxCell>
        <mxCell id="Z1yTV6-vZwtkHGQ9RvEY-45" value="&lt;span style=&quot;font-size: 14px;&quot;&gt;课程章节创建&lt;/span&gt;" style="rounded=0;whiteSpace=wrap;html=1;" vertex="1" parent="1">
          <mxGeometry x="-534.94" y="825" width="120" height="40" as="geometry" />
        </mxCell>
        <mxCell id="Z1yTV6-vZwtkHGQ9RvEY-48" style="edgeStyle=orthogonalEdgeStyle;rounded=0;orthogonalLoop=1;jettySize=auto;html=1;exitX=1;exitY=0.5;exitDx=0;exitDy=0;entryX=1;entryY=0.5;entryDx=0;entryDy=0;" edge="1" parent="1" source="Z1yTV6-vZwtkHGQ9RvEY-50" target="Z1yTV6-vZwtkHGQ9RvEY-52">
          <mxGeometry relative="1" as="geometry" />
        </mxCell>
        <mxCell id="Z1yTV6-vZwtkHGQ9RvEY-49" value="&lt;span style=&quot;font-size: 14px;&quot;&gt;新建&lt;/span&gt;" style="edgeLabel;html=1;align=center;verticalAlign=middle;resizable=0;points=[];" vertex="1" connectable="0" parent="Z1yTV6-vZwtkHGQ9RvEY-48">
          <mxGeometry x="-0.2568" y="2" relative="1" as="geometry">
            <mxPoint as="offset" />
          </mxGeometry>
        </mxCell>
        <mxCell id="Z1yTV6-vZwtkHGQ9RvEY-60" style="edgeStyle=orthogonalEdgeStyle;rounded=0;orthogonalLoop=1;jettySize=auto;html=1;entryX=0.5;entryY=0;entryDx=0;entryDy=0;" edge="1" parent="1" target="Z1yTV6-vZwtkHGQ9RvEY-57">
          <mxGeometry relative="1" as="geometry">
            <mxPoint x="-580" y="910" as="sourcePoint" />
            <mxPoint x="-590" y="1080" as="targetPoint" />
            <Array as="points">
              <mxPoint x="-580" y="990" />
              <mxPoint x="-580" y="990" />
            </Array>
          </mxGeometry>
        </mxCell>
        <mxCell id="Z1yTV6-vZwtkHGQ9RvEY-61" value="&lt;font style=&quot;font-size: 14px;&quot;&gt;取消&lt;/font&gt;" style="edgeLabel;html=1;align=center;verticalAlign=middle;resizable=0;points=[];" vertex="1" connectable="0" parent="Z1yTV6-vZwtkHGQ9RvEY-60">
          <mxGeometry x="-0.1366" y="-2" relative="1" as="geometry">
            <mxPoint as="offset" />
          </mxGeometry>
        </mxCell>
        <mxCell id="Z1yTV6-vZwtkHGQ9RvEY-50" value="&lt;font style=&quot;font-size: 14px;&quot;&gt;是否新建章节&lt;/font&gt;" style="rhombus;whiteSpace=wrap;html=1;" vertex="1" parent="1">
          <mxGeometry x="-579.94" y="880" width="210" height="60" as="geometry" />
        </mxCell>
        <mxCell id="Z1yTV6-vZwtkHGQ9RvEY-51" value="" style="edgeStyle=orthogonalEdgeStyle;rounded=0;orthogonalLoop=1;jettySize=auto;html=1;" edge="1" parent="1" source="Z1yTV6-vZwtkHGQ9RvEY-52" target="Z1yTV6-vZwtkHGQ9RvEY-54">
          <mxGeometry relative="1" as="geometry" />
        </mxCell>
        <mxCell id="Z1yTV6-vZwtkHGQ9RvEY-52" value="&lt;font style=&quot;font-size: 14px;&quot;&gt;填写章节信息&lt;/font&gt;" style="rounded=0;whiteSpace=wrap;html=1;" vertex="1" parent="1">
          <mxGeometry x="-460.00000000000006" y="960" width="120" height="30" as="geometry" />
        </mxCell>
        <mxCell id="Z1yTV6-vZwtkHGQ9RvEY-63" value="" style="edgeStyle=orthogonalEdgeStyle;rounded=0;orthogonalLoop=1;jettySize=auto;html=1;" edge="1" parent="1" source="Z1yTV6-vZwtkHGQ9RvEY-54" target="Z1yTV6-vZwtkHGQ9RvEY-62">
          <mxGeometry relative="1" as="geometry" />
        </mxCell>
        <mxCell id="Z1yTV6-vZwtkHGQ9RvEY-54" value="&lt;font style=&quot;font-size: 14px;&quot;&gt;确认创建&lt;/font&gt;" style="rounded=0;whiteSpace=wrap;html=1;" vertex="1" parent="1">
          <mxGeometry x="-460.00000000000006" y="1027.5" width="120" height="30" as="geometry" />
        </mxCell>
        <mxCell id="Z1yTV6-vZwtkHGQ9RvEY-57" value="&lt;font style=&quot;font-size: 14px;&quot;&gt;结束&lt;/font&gt;" style="rounded=1;whiteSpace=wrap;html=1;" vertex="1" parent="1">
          <mxGeometry x="-640" y="1090" width="120" height="30" as="geometry" />
        </mxCell>
        <mxCell id="Z1yTV6-vZwtkHGQ9RvEY-64" value="" style="edgeStyle=orthogonalEdgeStyle;rounded=0;orthogonalLoop=1;jettySize=auto;html=1;" edge="1" parent="1" source="Z1yTV6-vZwtkHGQ9RvEY-62" target="Z1yTV6-vZwtkHGQ9RvEY-57">
          <mxGeometry relative="1" as="geometry" />
        </mxCell>
        <mxCell id="Z1yTV6-vZwtkHGQ9RvEY-62" value="&lt;font style=&quot;font-size: 14px;&quot;&gt;实时展示章节信息&lt;/font&gt;" style="rounded=0;whiteSpace=wrap;html=1;" vertex="1" parent="1">
          <mxGeometry x="-460.00000000000006" y="1090" width="120" height="30" as="geometry" />
        </mxCell>
        <mxCell id="Z1yTV6-vZwtkHGQ9RvEY-68" style="edgeStyle=orthogonalEdgeStyle;rounded=0;orthogonalLoop=1;jettySize=auto;html=1;exitX=0.5;exitY=1;exitDx=0;exitDy=0;entryX=0.5;entryY=0;entryDx=0;entryDy=0;" edge="1" parent="1" source="Z1yTV6-vZwtkHGQ9RvEY-69" target="Z1yTV6-vZwtkHGQ9RvEY-71">
          <mxGeometry relative="1" as="geometry" />
        </mxCell>
        <mxCell id="Z1yTV6-vZwtkHGQ9RvEY-69" value="&lt;font style=&quot;font-size: 14px;&quot;&gt;开始&lt;/font&gt;" style="rounded=1;whiteSpace=wrap;html=1;" vertex="1" parent="1">
          <mxGeometry x="-444.94000000000005" y="1410" width="120" height="30" as="geometry" />
        </mxCell>
        <mxCell id="Z1yTV6-vZwtkHGQ9RvEY-84" value="" style="edgeStyle=orthogonalEdgeStyle;rounded=0;orthogonalLoop=1;jettySize=auto;html=1;" edge="1" parent="1" source="Z1yTV6-vZwtkHGQ9RvEY-71" target="Z1yTV6-vZwtkHGQ9RvEY-78">
          <mxGeometry relative="1" as="geometry" />
        </mxCell>
        <mxCell id="Z1yTV6-vZwtkHGQ9RvEY-71" value="&lt;span style=&quot;font-size: 14px;&quot;&gt;发送消息&lt;/span&gt;" style="rounded=0;whiteSpace=wrap;html=1;" vertex="1" parent="1">
          <mxGeometry x="-444.94000000000005" y="1455" width="120" height="40" as="geometry" />
        </mxCell>
        <mxCell id="Z1yTV6-vZwtkHGQ9RvEY-93" style="edgeStyle=orthogonalEdgeStyle;rounded=0;orthogonalLoop=1;jettySize=auto;html=1;" edge="1" parent="1" source="Z1yTV6-vZwtkHGQ9RvEY-78" target="Z1yTV6-vZwtkHGQ9RvEY-92">
          <mxGeometry relative="1" as="geometry" />
        </mxCell>
        <mxCell id="Z1yTV6-vZwtkHGQ9RvEY-78" value="&lt;span style=&quot;font-size: 14px;&quot;&gt;选择发送人&lt;/span&gt;" style="rounded=0;whiteSpace=wrap;html=1;" vertex="1" parent="1">
          <mxGeometry x="-444.94000000000005" y="1510" width="120" height="30" as="geometry" />
        </mxCell>
        <mxCell id="Z1yTV6-vZwtkHGQ9RvEY-79" value="" style="edgeStyle=orthogonalEdgeStyle;rounded=0;orthogonalLoop=1;jettySize=auto;html=1;entryX=1;entryY=0.5;entryDx=0;entryDy=0;exitX=0.5;exitY=1;exitDx=0;exitDy=0;" edge="1" parent="1" source="Z1yTV6-vZwtkHGQ9RvEY-80" target="Z1yTV6-vZwtkHGQ9RvEY-81">
          <mxGeometry relative="1" as="geometry">
            <mxPoint x="-270" y="1730" as="targetPoint" />
          </mxGeometry>
        </mxCell>
        <mxCell id="Z1yTV6-vZwtkHGQ9RvEY-80" value="&lt;font style=&quot;font-size: 14px;&quot;&gt;接收方消息列表更新&lt;/font&gt;" style="rounded=0;whiteSpace=wrap;html=1;" vertex="1" parent="1">
          <mxGeometry x="-350.00000000000006" y="1690" width="120" height="30" as="geometry" />
        </mxCell>
        <mxCell id="Z1yTV6-vZwtkHGQ9RvEY-81" value="&lt;font style=&quot;font-size: 14px;&quot;&gt;结束&lt;/font&gt;" style="rounded=1;whiteSpace=wrap;html=1;" vertex="1" parent="1">
          <mxGeometry x="-473.00000000000006" y="1730" width="120" height="30" as="geometry" />
        </mxCell>
        <mxCell id="Z1yTV6-vZwtkHGQ9RvEY-88" style="edgeStyle=orthogonalEdgeStyle;rounded=0;orthogonalLoop=1;jettySize=auto;html=1;exitX=1;exitY=0.5;exitDx=0;exitDy=0;" edge="1" parent="1" source="Z1yTV6-vZwtkHGQ9RvEY-86" target="Z1yTV6-vZwtkHGQ9RvEY-80">
          <mxGeometry relative="1" as="geometry">
            <Array as="points">
              <mxPoint x="-280" y="1645" />
            </Array>
          </mxGeometry>
        </mxCell>
        <mxCell id="Z1yTV6-vZwtkHGQ9RvEY-89" value="&lt;font style=&quot;font-size: 12px;&quot;&gt;no&lt;/font&gt;" style="edgeLabel;html=1;align=center;verticalAlign=middle;resizable=0;points=[];" vertex="1" connectable="0" parent="Z1yTV6-vZwtkHGQ9RvEY-88">
          <mxGeometry x="-0.7585" y="4" relative="1" as="geometry">
            <mxPoint x="171" y="-5" as="offset" />
          </mxGeometry>
        </mxCell>
        <mxCell id="Z1yTV6-vZwtkHGQ9RvEY-94" value="yes" style="edgeLabel;html=1;align=center;verticalAlign=middle;resizable=0;points=[];" vertex="1" connectable="0" parent="Z1yTV6-vZwtkHGQ9RvEY-88">
          <mxGeometry x="-0.1884" relative="1" as="geometry">
            <mxPoint as="offset" />
          </mxGeometry>
        </mxCell>
        <mxCell id="Z1yTV6-vZwtkHGQ9RvEY-95" style="edgeStyle=orthogonalEdgeStyle;rounded=0;orthogonalLoop=1;jettySize=auto;html=1;entryX=0.5;entryY=0;entryDx=0;entryDy=0;" edge="1" parent="1" source="Z1yTV6-vZwtkHGQ9RvEY-86" target="Z1yTV6-vZwtkHGQ9RvEY-81">
          <mxGeometry relative="1" as="geometry" />
        </mxCell>
        <mxCell id="Z1yTV6-vZwtkHGQ9RvEY-96" value="no" style="edgeLabel;html=1;align=center;verticalAlign=middle;resizable=0;points=[];" vertex="1" connectable="0" parent="Z1yTV6-vZwtkHGQ9RvEY-95">
          <mxGeometry x="-0.3309" y="1" relative="1" as="geometry">
            <mxPoint as="offset" />
          </mxGeometry>
        </mxCell>
        <mxCell id="Z1yTV6-vZwtkHGQ9RvEY-86" value="&lt;font style=&quot;font-size: 14px;&quot;&gt;是否发送&lt;/font&gt;" style="rhombus;whiteSpace=wrap;html=1;" vertex="1" parent="1">
          <mxGeometry x="-473" y="1620" width="174.94" height="50" as="geometry" />
        </mxCell>
        <mxCell id="Z1yTV6-vZwtkHGQ9RvEY-98" value="" style="edgeStyle=orthogonalEdgeStyle;rounded=0;orthogonalLoop=1;jettySize=auto;html=1;" edge="1" parent="1" source="Z1yTV6-vZwtkHGQ9RvEY-92" target="Z1yTV6-vZwtkHGQ9RvEY-86">
          <mxGeometry relative="1" as="geometry" />
        </mxCell>
        <mxCell id="Z1yTV6-vZwtkHGQ9RvEY-92" value="&lt;span style=&quot;font-size: 14px;&quot;&gt;输入消息内容&lt;/span&gt;" style="rounded=0;whiteSpace=wrap;html=1;" vertex="1" parent="1">
          <mxGeometry x="-444.94000000000005" y="1560" width="120" height="30" as="geometry" />
        </mxCell>
      </root>
    </mxGraphModel>
  </diagram>
</mxfile>
